<?xml version="1.0" encoding="UTF-8"?>
<svg version="1.1" xmlns="http://www.w3.org/2000/svg" width="2379" height="1552">
<path d="M0 0 C0.78056763 -0.00100708 1.56113525 -0.00201416 2.36535645 -0.00305176 C14.19396835 0.00727148 25.56824778 0.52432371 37.125 3.25 C37.79321777 3.39985352 38.46143555 3.54970703 39.14990234 3.70410156 C59.77847845 8.40579977 78.46835818 18.37848979 95.125 31.25 C96.59066406 32.37921875 96.59066406 32.37921875 98.0859375 33.53125 C126.03309348 55.76372142 141.57817631 85.89265512 145.90589905 121.10858154 C151.70847395 177.82098228 132.7364837 234.82926896 118.08372498 288.76925659 C112.73732826 308.46826707 108.02236228 328.21085093 104.125 348.25 C103.94211426 349.18827637 103.75922852 350.12655273 103.57080078 351.09326172 C96.47151907 388.55314552 95.01774195 431.83182016 116.125 465.25 C127.68902281 482.09325061 143.91433089 491.68896777 163.69921875 496.03515625 C187.00175993 499.97545157 203.94234466 491.13796008 222.84985352 478.94262695 C262.03063394 453.71552394 304.88266933 441.8705805 351.125 438.25 C352.22900146 438.16314941 353.33300293 438.07629883 354.47045898 437.98681641 C365.99873476 437.17074605 377.50781537 437.00710954 389.0625 437 C390.05500763 436.99932526 391.04751526 436.99865051 392.07009888 436.99795532 C407.27910954 437.01433659 422.13201539 437.44821163 437.125 440.25 C438.05135254 440.42160645 438.97770508 440.59321289 439.93212891 440.77001953 C480.25354163 448.53454557 518.01557464 466.69409201 547.44580078 495.6015625 C549.31411481 497.43565036 551.20255307 499.24795383 553.08984375 501.0625 C561.01638982 508.75843867 568.28584871 516.64347972 574.84814453 525.53320312 C576.11343287 527.23444741 577.4097889 528.90726303 578.71484375 530.578125 C622.95955119 588.01446147 644.14984406 662.01354157 657.125 732.25 C657.26572937 733.01080872 657.40645874 733.77161743 657.55145264 734.55548096 C667.28798179 787.56388883 671.33869359 841.45768384 671.49291611 895.30866241 C671.49983358 897.32645633 671.51189262 899.34423054 671.52407837 901.36199951 C671.63953345 926.14234571 670.4041671 951.05599826 665.3125 975.375 C665.05388184 976.65157471 664.79526367 977.92814941 664.52880859 979.2434082 C656.6748497 1017.02185435 641.54294607 1053.45349363 615.11328125 1082.07421875 C613.51793179 1083.82001374 612.02564268 1085.58288102 610.5625 1087.4375 C607.37417161 1091.11634045 603.87585715 1094.15583866 600.125 1097.25 C599.63354492 1097.65911621 599.14208984 1098.06823242 598.63574219 1098.48974609 C578.96874497 1114.76773016 555.94321103 1126.97704708 531.125 1133.25 C529.65898153 1133.62871084 529.65898153 1133.62871084 528.16334653 1134.01507241 C516.59981317 1136.67707861 505.29235278 1136.67311136 493.47088623 1136.63768005 C491.19204104 1136.64185851 488.91319793 1136.64733883 486.63435864 1136.65399987 C480.40386174 1136.6684069 474.17349766 1136.66422447 467.94299364 1136.65683305 C461.9030775 1136.6525794 455.86319383 1136.66242453 449.82328738 1136.67174067 C436.71201731 1136.69136625 423.60078686 1136.69376257 410.4895056 1136.68854547 C399.00778158 1136.68397942 387.52607319 1136.68459846 376.04434967 1136.69038582 C374.50119587 1136.69114271 372.95804208 1136.69189869 371.41488828 1136.69265376 C369.08911185 1136.69379903 366.76333543 1136.69494892 364.43755901 1136.69611301 C342.82306035 1136.70681277 321.20856687 1136.7115491 299.59406662 1136.70364285 C298.37286645 1136.70319709 298.37286645 1136.70319709 297.12699557 1136.70274232 C290.51675024 1136.70029368 283.90650497 1136.69768194 277.2962597 1136.69505819 C251.5415572 1136.68496672 225.78691996 1136.69329237 200.03222656 1136.71655273 C171.05467251 1136.74268186 142.07715775 1136.75545746 113.09959149 1136.74836498 C110.00354084 1136.74764901 106.90749018 1136.74697461 103.81143951 1136.74632454 C103.04919207 1136.74615473 102.28694464 1136.74598492 101.50159879 1136.74580997 C90.04097551 1136.74351579 78.58038892 1136.75144206 67.11977386 1136.76461601 C54.0660785 1136.77959504 41.01246855 1136.78028099 27.95877489 1136.7625451 C21.30835867 1136.75387893 14.65806963 1136.75179665 8.00765228 1136.76719666 C-30.25787364 1136.84937094 -66.78074811 1136.43098873 -101.875 1119.25 C-102.49536133 1118.95399902 -103.11572266 1118.65799805 -103.75488281 1118.35302734 C-142.71624329 1099.60173295 -168.79715508 1063.61774433 -182.86987305 1023.5625 C-186.22792833 1013.6104313 -188.9023224 1003.56375695 -190.875 993.25 C-191.1215573 992.06290467 -191.3681146 990.87580935 -191.62214333 989.65274143 C-194.46308989 974.90216137 -194.3051186 960.1132497 -194.26660402 945.15625039 C-194.25982652 941.21901124 -194.27059391 937.28181037 -194.27899987 933.3445797 C-194.29131422 926.46037486 -194.29260195 919.57623824 -194.28644943 912.69202614 C-194.27732441 902.45420033 -194.28541766 892.21643714 -194.29674067 881.97861611 C-194.31637309 863.68708449 -194.31876145 845.39558127 -194.31354547 827.10404163 C-194.30898185 811.0914723 -194.30959549 795.07891418 -194.31538582 779.06634521 C-194.3161427 776.91540209 -194.31689868 774.76445897 -194.31765376 772.61351585 C-194.31879901 769.37188818 -194.31994889 766.1302605 -194.32111301 762.88863283 C-194.33181318 732.76264808 -194.33654838 702.63666705 -194.32864285 672.51068115 C-194.32834567 671.37583109 -194.3280485 670.24098104 -194.32774232 669.07174158 C-194.32529359 659.85701308 -194.3226819 650.64228461 -194.32005819 641.42755616 C-194.30996029 605.50165379 -194.31830446 569.57579819 -194.34155273 533.64990234 C-194.36765594 493.24728224 -194.38046484 452.84469027 -194.37336498 412.44206142 C-194.37264897 408.12943459 -194.37197458 403.81680775 -194.37132454 399.50418091 C-194.37115473 398.44237582 -194.37098492 397.38057072 -194.37080997 396.28658972 C-194.36851197 380.2943918 -194.37646023 364.30222011 -194.38961601 348.31002808 C-194.40456259 330.10895702 -194.40532343 311.9079472 -194.3875451 293.70687741 C-194.37801859 283.53663133 -194.37934181 273.3665283 -194.39677979 263.19629193 C-194.40733719 256.38329728 -194.40307445 249.5704106 -194.38729975 242.75742644 C-194.37874069 238.88855947 -194.37606103 235.01997086 -194.39156907 231.15111911 C-194.4789385 207.74718716 -192.65664809 184.8395693 -186.6875 162.125 C-186.38980713 160.97507568 -186.09211426 159.82515137 -185.78540039 158.64038086 C-171.98980011 106.93791903 -143.28206211 51.62829589 -95.69921875 23.91796875 C-73.98120474 11.68973467 -50.4571933 4.81748384 -25.875 1.25 C-25.20291504 1.146875 -24.53083008 1.04375 -23.83837891 0.9375 C-15.94503597 -0.11972842 -7.94959491 0.00710345 0 0 Z " fill="#FEFEFE" transform="translate(193.875,13.75)"/>
<path d="M0 0 C53.61039185 -1.17781893 107.02386318 8.74479297 155.47167969 32.06640625 C156.28266113 32.44877441 157.09364258 32.83114258 157.92919922 33.22509766 C176.31673423 41.91101207 193.71321404 52.17311618 209.47167969 65.06640625 C210.38691406 65.79085937 211.30214844 66.5153125 212.24511719 67.26171875 C227.40982019 79.38479078 242.25125645 93.06187126 254.28417969 108.32421875 C256.22581609 110.75819866 258.24167444 113.10297234 260.29663086 115.44116211 C312.49876338 175.31320121 342.10915388 258.30816281 357.78417969 358.06640625 C357.90641907 359.10302399 357.90641907 359.10302399 358.03112793 360.1605835 C360.00084253 377.13907595 360.70909857 393.98938848 360.72167969 411.06640625 C360.72268677 412.0246228 360.72369385 412.98283936 360.72473145 413.97009277 C360.65929507 506.7704169 325.02821095 603.87919198 262.47167969 673.06640625 C261.89353516 673.70626465 261.31539062 674.34612305 260.71972656 675.00537109 C254.28873296 682.08462261 247.86985158 688.98438853 240.47167969 695.06640625 C239.55644531 695.86949219 238.64121094 696.67257812 237.69824219 697.5 C220.17571774 712.83117001 200.5584212 725.25352308 179.47167969 735.06640625 C178.76624023 735.39495605 178.06080078 735.72350586 177.33398438 736.06201172 C113.21373569 765.45404518 37.73931389 766.22185432 -28.02832031 742.06640625 C-39.44273141 737.75738224 -50.48645859 732.63172374 -61.56225586 727.53222656 C-95.8227908 711.16518721 -95.8227908 711.16518721 -132.52832031 715.06640625 C-140.89597396 718.51972363 -147.799585 723.03858086 -154.52832031 729.06640625 C-155.37394531 729.81792969 -156.21957031 730.56945313 -157.09082031 731.34375 C-172.52851914 745.8636588 -180.43991115 766.03193904 -181.77441406 786.91796875 C-182.18352826 810.16528116 -174.04157349 831.53215752 -166.8890686 853.31811523 C-158.80694012 877.94990977 -151.7607303 902.43584084 -147.52832031 928.06640625 C-147.39554688 928.86916992 -147.26277344 929.67193359 -147.12597656 930.49902344 C-140.92106661 970.04660964 -147.09823143 1010.44140081 -170.32226562 1043.45117188 C-174.4356888 1048.96016129 -179.28945599 1053.83088351 -184.14550781 1058.6796875 C-185.46040528 1059.99674054 -186.76502156 1061.32541442 -188.02050781 1062.69921875 C-209.91728011 1086.32793914 -247.99887828 1104.47938836 -279.79171753 1106.18804932 C-285.30774622 1106.39062512 -290.82175088 1106.40461086 -296.34082031 1106.37890625 C-297.17659607 1106.3767511 -298.01237183 1106.37459595 -298.87347412 1106.37237549 C-310.96930163 1106.32234373 -322.74766975 1106.07302493 -334.52832031 1103.06640625 C-335.33285645 1102.86772949 -336.13739258 1102.66905273 -336.96630859 1102.46435547 C-371.65932804 1093.65081009 -400.88122899 1071.4055635 -419.18847656 1040.67578125 C-438.95086281 1006.49039786 -449.68887543 966.43939763 -449.67257214 926.94630241 C-449.67601355 925.75742436 -449.67945496 924.5685463 -449.68300065 923.34364164 C-449.69152341 920.05572964 -449.69566854 916.76784643 -449.69792844 913.47992527 C-449.70147475 909.89791501 -449.7107284 906.31591863 -449.71923667 902.73391736 C-449.73334846 896.45931468 -449.74379369 890.18471423 -449.7518177 883.91010094 C-449.76375448 874.57831025 -449.7813004 865.24653591 -449.79989609 855.91475642 C-449.83482834 838.27196523 -449.8629891 820.62916714 -449.88891753 802.98636071 C-449.90897072 789.35080991 -449.93057196 775.7152624 -449.95325661 762.07971573 C-449.9597719 758.15207868 -449.9662787 754.22444162 -449.97278243 750.29680455 C-449.97439969 749.32029319 -449.97601695 748.34378183 -449.97768322 747.33767921 C-450.02311477 719.86633304 -450.06634477 692.39498411 -450.10522747 664.92362785 C-450.10669475 663.88784424 -450.10816203 662.85206063 -450.10967378 661.78488964 C-450.11710643 656.53539857 -450.12452398 651.28590749 -450.13193872 646.0364164 C-450.13341171 644.99390152 -450.13488471 643.95138665 -450.13640234 642.87728042 C-450.13938103 640.76905507 -450.14235832 638.66082972 -450.14533421 636.55260437 C-450.19163051 603.79677297 -450.24613213 571.04096391 -450.30688477 538.28515625 C-450.37518513 501.45701498 -450.43650244 464.62887084 -450.48813468 427.80070221 C-450.49367612 423.86614931 -450.49924445 419.93159645 -450.50483131 415.99704361 C-450.50620281 415.02831136 -450.50757431 414.05957911 -450.50898736 413.06149134 C-450.53114148 397.52711831 -450.5598543 381.99276417 -450.59090293 366.45840667 C-450.62198747 350.81426298 -450.64531362 335.17012192 -450.66100606 319.52595513 C-450.67051965 310.25443378 -450.68556412 300.98296233 -450.70894053 291.71146535 C-450.72404645 285.49085614 -450.73149133 279.27026588 -450.73312766 273.04963868 C-450.73425913 269.52309709 -450.73830211 265.99663996 -450.75181063 262.4701222 C-450.80053534 247.95765816 -450.52425077 233.51607796 -449.62461567 219.03315926 C-449.54486325 217.74107518 -449.46511083 216.4489911 -449.38294167 215.11775296 C-446.65942088 174.71870646 -437.57519688 129.03099379 -412.52832031 96.06640625 C-411.88378906 95.21433594 -411.23925781 94.36226563 -410.57519531 93.484375 C-408.60940777 90.96522601 -406.58927999 88.50815277 -404.52832031 86.06640625 C-403.84125 85.24398437 -403.15417969 84.4215625 -402.44628906 83.57421875 C-382.12447645 60.0668247 -352.57178678 46.70627949 -321.75927734 44.21142578 C-295.38080321 42.49673836 -271.15824174 47.70246011 -246.34082031 56.19140625 C-223.94381724 63.78292611 -200.53404396 67.14274147 -178.14550781 57.62890625 C-171.41393738 54.25501071 -165.75979084 49.98807851 -159.96264648 45.26220703 C-153.32221544 39.93563856 -146.09375526 35.92599369 -138.52832031 32.06640625 C-137.50931641 31.54651123 -137.50931641 31.54651123 -136.46972656 31.01611328 C-94.67412515 9.98992344 -46.48682916 1.22097504 0 0 Z " fill="#FEFEFE" transform="translate(1750.5283203125,416.93359375)"/>
<path d="M0 0 C21.06493571 19.18646982 35.74400167 44.33512768 44.22338867 71.39892578 C44.45759521 72.12305664 44.69180176 72.8471875 44.93310547 73.59326172 C51.23593351 94.79101254 50.40982024 116.73226411 50.36556268 138.59331203 C50.35871395 143.60635366 50.36928198 148.61936508 50.37750244 153.63240051 C50.39078042 163.42755049 50.38798865 173.22263116 50.37926452 183.01778376 C50.37246488 190.98481792 50.37158107 198.95183278 50.37483597 206.91886902 C50.37529567 208.05660895 50.37575537 209.19434889 50.376229 210.36656579 C50.37718826 212.67850149 50.3781609 214.99043719 50.37914677 217.30237287 C50.38768328 238.93637943 50.3778939 260.57034774 50.36174567 282.20434803 C50.34834409 300.73162876 50.35067267 319.25885309 50.36450195 337.78613281 C50.38058857 359.34741534 50.38685947 380.90866441 50.37766516 402.46995211 C50.3767096 404.77296225 50.37576649 407.07597239 50.37483597 409.37898254 C50.37437314 410.51184609 50.37391031 411.64470963 50.37343346 412.81190237 C50.37085281 420.76118106 50.37519454 428.71043837 50.38227463 436.65971375 C50.39072416 446.35893148 50.38833733 456.05807646 50.3724324 465.75728595 C50.36459591 470.69754338 50.36137833 475.63767989 50.37137985 480.57793617 C50.4535774 524.82634536 50.4535774 524.82634536 44.28588867 545.27392578 C44.03025146 546.13671143 43.77461426 546.99949707 43.51123047 547.88842773 C37.29851211 568.08578069 27.02964645 586.84513326 12.97338867 602.64892578 C12.26827148 603.47392578 11.5631543 604.29892578 10.83666992 605.14892578 C-11.02246964 630.26535185 -39.83557084 646.66860499 -72.02661133 654.64892578 C-73.30536133 654.96990234 -74.58411133 655.29087891 -75.90161133 655.62158203 C-96.49611323 660.14435549 -121.6027564 659.73486613 -142.02661133 654.64892578 C-143.10555664 654.39949219 -143.10555664 654.39949219 -144.20629883 654.14501953 C-173.22451036 647.36740957 -197.73434359 632.09533631 -219.02661133 611.64892578 C-219.58276123 611.11614014 -220.13891113 610.58335449 -220.71191406 610.03442383 C-238.71677624 592.46126153 -250.78821314 569.74553688 -258.21411133 545.89892578 C-258.57134277 544.77574951 -258.57134277 544.77574951 -258.93579102 543.62988281 C-263.23004022 529.19626679 -264.47426852 514.70958959 -264.40756226 499.74330139 C-264.41102933 498.01713801 -264.41580086 496.29097686 -264.42174399 494.56482023 C-264.43413979 489.87625056 -264.42813634 485.18786667 -264.41878533 480.49929678 C-264.41194774 475.42148057 -264.42249926 470.34369447 -264.4307251 465.2658844 C-264.44401503 455.33978395 -264.44120583 445.41375184 -264.43248717 435.48764879 C-264.42569191 427.41472302 -264.42480185 419.34181629 -264.42805862 411.26888847 C-264.42851832 410.11671203 -264.42897802 408.96453558 -264.42945165 407.7774447 C-264.4304109 405.4362752 -264.43138354 403.09510571 -264.43236943 400.75393622 C-264.44090954 378.83717145 -264.43111107 356.92044441 -264.41496833 335.00368582 C-264.4015682 316.22989601 -264.40389342 297.45616186 -264.41772461 278.68237305 C-264.43380792 256.84167819 -264.44008381 235.00101636 -264.43088782 213.16031641 C-264.42993225 210.8278039 -264.42898913 208.49529138 -264.42805862 206.16277885 C-264.42736438 204.44165668 -264.42736438 204.44165668 -264.42665612 202.68576436 C-264.42407434 194.63034076 -264.42841968 186.57493824 -264.43549728 178.5195179 C-264.44394318 168.69139917 -264.44156758 158.86335225 -264.42565505 149.03524167 C-264.41781347 144.02828878 -264.41460987 139.02145527 -264.42460251 134.01450348 C-264.43363609 129.4183108 -264.42847627 124.82234654 -264.41266985 120.22617417 C-264.40935827 118.57632004 -264.41093277 116.92644603 -264.41829722 115.27660502 C-264.48022675 100.23150174 -262.9545845 85.12161826 -258.40161133 70.71142578 C-258.14927734 69.89770508 -257.89694336 69.08398438 -257.63696289 68.24560547 C-251.11769136 48.03663889 -241.0922149 29.57892982 -227.02661133 13.64892578 C-226.19645508 12.68599609 -225.36629883 11.72306641 -224.51098633 10.73095703 C-199.34930959 -17.97862335 -161.79298246 -38.34172666 -123.41479492 -41.22216797 C-76.90926661 -43.73238254 -35.07086151 -31.13963028 0 0 Z " fill="#FFFFFF" transform="translate(1189.026611328125,492.35107421875)"/>
<path d="M0 0 C1.34143066 0.24145752 1.34143066 0.24145752 2.70996094 0.48779297 C16.63129759 3.11985099 29.2420136 7.90220207 42 14 C43.61841797 14.7734375 43.61841797 14.7734375 45.26953125 15.5625 C57.94562413 22.09542049 68.78850076 31.16227452 79 41 C79.70511719 41.64195312 80.41023438 42.28390625 81.13671875 42.9453125 C107.01933625 67.20042261 121.53502966 105.98395252 123.18309808 140.87651443 C123.24896382 144.85810382 123.25785346 148.83700197 123.24050903 152.81884766 C123.24138385 154.3423342 123.24313989 155.86582045 123.24568737 157.38930511 C123.25011067 161.52617117 123.24222734 165.66293156 123.23213124 169.79978418 C123.22342571 174.27943546 123.22642189 178.75908165 123.22793579 183.23873901 C123.22898019 190.98363638 123.22275041 198.72849983 123.21146011 206.47338867 C123.19514732 217.67094149 123.18999122 228.86847805 123.18748413 240.06604147 C123.18311606 258.23707078 123.16983115 276.40808204 123.15087891 294.57910156 C123.13249706 312.22167879 123.11837481 329.86425108 123.10986328 347.50683594 C123.10932729 348.60695409 123.10879129 349.70707223 123.10823905 350.8405273 C123.10407976 359.44525774 123.10016607 368.04998829 123.09632993 376.65471888 C123.07749147 418.76982915 123.03724803 460.88489421 123 503 C16.41 503 -90.18 503 -200 503 C-200.0806627 413.25378581 -200.0806627 413.25378581 -200.09765625 375.70117188 C-200.10157159 367.10668938 -200.10561244 358.51220695 -200.10986328 349.91772461 C-200.11039078 348.8406478 -200.11091828 347.763571 -200.11146176 346.6538555 C-200.12014417 329.2987154 -200.13590283 311.94358864 -200.15430559 294.58845643 C-200.17305384 276.75789019 -200.18412711 258.9273309 -200.18817699 241.09675521 C-200.19091186 230.10741758 -200.19952822 219.11811766 -200.21583293 208.12879165 C-200.2264607 200.57793507 -200.22958761 193.0270978 -200.22700275 185.47623429 C-200.22573042 181.12940994 -200.22758562 176.78265118 -200.23841095 172.4358387 C-200.34533989 127.23099446 -200.34533989 127.23099446 -195.5625 110.1875 C-195.35818359 109.39537109 -195.15386719 108.60324219 -194.94335938 107.78710938 C-189.27673661 86.37398347 -178.73879392 65.53875282 -164 49 C-163.28199219 48.16210938 -162.56398438 47.32421875 -161.82421875 46.4609375 C-140.29165682 21.75394815 -110.97009507 6.39401901 -79 0 C-78.278125 -0.14953125 -77.55625 -0.2990625 -76.8125 -0.453125 C-52.01712761 -5.37823321 -24.79012737 -4.49795644 0 0 Z " fill="#E51E2D" transform="translate(462,647)"/>
<path d="M0 0 C3.55056997 3.14013711 6.99952087 6.3787781 10.43261719 9.64648438 C11.0784375 10.23945312 11.72425781 10.83242187 12.38964844 11.44335938 C37.94638865 35.62350703 54.13385579 74.76850256 55.55493164 109.64868164 C56.57860019 151.43353295 46.50445741 190.69236837 18.43261719 222.64648438 C17.72621094 223.4740625 17.01980469 224.30164063 16.29199219 225.15429688 C-4.59422504 249.12085549 -31.74795955 265.2573745 -62.37988281 273.52148438 C-63.08282471 273.71258789 -63.7857666 273.90369141 -64.51000977 274.10058594 C-76.76544869 277.18297637 -89.22268666 278.01454104 -101.81738281 277.95898438 C-102.48992096 277.95682922 -103.16245911 277.95467407 -103.8553772 277.95245361 C-144.89327329 277.74259074 -181.8841189 261.6779791 -211.56738281 233.64648438 C-212.3653125 232.91300781 -213.16324219 232.17953125 -213.98535156 231.42382812 C-235.36537806 211.06351672 -248.31167999 183.91277688 -255.56738281 155.64648438 C-255.74817383 154.95490234 -255.92896484 154.26332031 -256.11523438 153.55078125 C-265.5209276 115.59142292 -256.54923551 72.21494664 -237.046875 39.03466797 C-230.67147786 28.74355661 -222.92669765 19.3796505 -214.56738281 10.64648438 C-213.47103516 9.45539063 -213.47103516 9.45539063 -212.35253906 8.24023438 C-157.48946587 -49.45271447 -59.42145965 -51.31348478 0 0 Z " fill="#FFB100" transform="translate(1183.5673828125,97.353515625)"/>
<path d="M0 0 C1.33578094 -0.01341431 1.33578094 -0.01341431 2.69854736 -0.02709961 C39.09081638 -0.27170847 72.06049192 14.2340534 98.75 38.5625 C99.69617187 39.42488281 100.64234375 40.28726563 101.6171875 41.17578125 C124.10562231 62.67676354 142.00962837 96.28579799 142.92700195 127.83520508 C142.95364465 129.41738801 142.97374728 130.99969076 142.98828125 132.58203125 C142.996353 133.43947433 143.00442474 134.29691742 143.01274109 135.18034363 C143.02651691 136.99317446 143.03726787 138.80603052 143.04516602 140.61889648 C143.05659864 142.43668455 143.07690924 144.25444142 143.10668945 146.07202148 C143.66646247 180.34951878 130.8010181 214.28439964 106.9765625 239.1953125 C104.70706084 241.54305577 104.70706084 241.54305577 102.67578125 244.16796875 C99.75698782 247.79721899 96.33356079 250.60591855 92.75 253.5625 C91.83347656 254.32820312 90.91695312 255.09390625 89.97265625 255.8828125 C76.96969344 266.34421259 62.46113896 274.0039832 46.75 279.5625 C45.698125 279.94019531 44.64625 280.31789063 43.5625 280.70703125 C9.07824167 292.21615247 -30.20938802 288.71288564 -62.5625 272.625 C-65.14127493 271.3002139 -67.69883477 269.93958059 -70.25 268.5625 C-71.3328125 267.985 -72.415625 267.4075 -73.53125 266.8125 C-80.77200468 262.78156441 -87.02712417 258.01841074 -93.25 252.5625 C-93.9929834 251.92006348 -93.9929834 251.92006348 -94.75097656 251.26464844 C-102.04291675 244.93570733 -108.41162322 238.29409799 -114.25 230.5625 C-114.84167969 229.78648437 -115.43335938 229.01046875 -116.04296875 228.2109375 C-134.30013598 203.2274455 -143.70127758 173.70438856 -143.5625 142.8125 C-143.56034485 142.15542053 -143.5581897 141.49834106 -143.55596924 140.8213501 C-143.50126114 130.39550443 -142.91627689 120.6574603 -140.25 110.5625 C-140.05132324 109.78293945 -139.85264648 109.00337891 -139.64794922 108.20019531 C-133.74192292 85.50512796 -123.37083671 66.44122517 -108.25 48.5625 C-107.66605469 47.85609375 -107.08210938 47.1496875 -106.48046875 46.421875 C-102.43972306 41.64230222 -98.09648121 37.51599472 -93.25 33.5625 C-91.86361328 32.41974609 -91.86361328 32.41974609 -90.44921875 31.25390625 C-76.19354373 19.75116097 -60.59017301 11.42457575 -43.25 5.5625 C-42.47285645 5.29002441 -41.69571289 5.01754883 -40.89501953 4.73681641 C-27.52498275 0.25957826 -13.95629135 0.06961505 0 0 Z " fill="#1F4ED8" transform="translate(1718.25,657.4375)"/>
<path d="M0 0 C1.97734131 0.00737183 1.97734131 0.00737183 3.99462891 0.01489258 C13.7456067 0.13193312 22.81654473 0.86973158 32.25 3.3125 C33.51585938 3.62960937 34.78171875 3.94671875 36.0859375 4.2734375 C70.29561791 13.55818802 98.78151874 36.70480635 116.36816406 67.25488281 C132.26000184 95.88324335 138.03929824 132.3667861 129.44140625 164.30859375 C129.04856812 165.64450035 128.65154533 166.97918474 128.25 168.3125 C128.06808105 168.96234863 127.88616211 169.61219727 127.69873047 170.28173828 C118.27822389 203.74600428 94.88583482 230.87304888 65.4375 248.5625 C36.96757262 264.20813577 -0.13642527 270.1583641 -31.75 261.3125 C-32.54986328 261.09207031 -33.34972656 260.87164063 -34.17382812 260.64453125 C-52.95058383 255.29591508 -69.8949319 247.0481932 -84.75 234.3125 C-85.26111328 233.87824707 -85.77222656 233.44399414 -86.29882812 232.99658203 C-112.09562544 210.90464391 -127.93094732 179.98656108 -131.75 146.3125 C-132.02726424 141.72458651 -132.08452475 137.15801259 -132.0625 132.5625 C-132.05758545 131.33748779 -132.0526709 130.11247559 -132.04760742 128.8503418 C-131.92524738 119.34579022 -131.0591565 110.52119267 -128.75 101.3125 C-128.58371094 100.62720215 -128.41742187 99.9419043 -128.24609375 99.23583984 C-120.02673891 66.03116841 -98.59893936 37.19558322 -69.5078125 19.3203125 C-58.94804255 13.01454893 -47.96782693 8.12943569 -36.1875 4.5625 C-35.53998779 4.36374268 -34.89247559 4.16498535 -34.2253418 3.96020508 C-22.97620474 0.72297346 -11.65613873 -0.05162881 0 0 Z " fill="#FFFFFF" transform="translate(2246.75,890.6875)"/>
<path d="M0 0 C0.66 0.33 1.32 0.66 2 1 C-5.92 8.92 -13.84 16.84 -22 25 C-22 20.69930341 -19.44178782 18.83109357 -16.625 15.875 C-16.08713867 15.30112549 -15.54927734 14.72725098 -14.99511719 14.13598633 C-10.24767775 9.13077686 -5.24129482 4.4875688 0 0 Z " fill="#E35863" transform="translate(318,676)"/>
<path d="M0 0 C0.66 0.33 1.32 0.66 2 1 C-4.93 7.93 -11.86 14.86 -19 22 C-19 19 -19 19 -17.64453125 17.3515625 C-17.03996094 16.78179688 -16.43539063 16.21203125 -15.8125 15.625 C-15.16925781 15.00882813 -14.52601562 14.39265625 -13.86328125 13.7578125 C-12.94095703 12.88769531 -12.94095703 12.88769531 -12 12 C-11.175 11.175 -10.35 10.35 -9.5 9.5 C-6.33333333 6.33333333 -3.16666667 3.16666667 0 0 Z " fill="#5D7EDD" transform="translate(1627,689)"/>
</svg>
