<?xml version="1.0" encoding="UTF-8"?>
<svg version="1.1" xmlns="http://www.w3.org/2000/svg" width="1186" height="224">
<path d="M0 0 C2.16860117 -0.00373928 4.337201 -0.00834191 6.5057987 -0.01373065 C12.4494121 -0.02594094 18.39296912 -0.02570251 24.3365922 -0.02334189 C30.75245432 -0.02293325 37.16829849 -0.03397718 43.58415222 -0.04345703 C56.14612955 -0.06005544 68.70808752 -0.06559193 81.27007486 -0.06668179 C91.47854884 -0.06760168 101.68701674 -0.07172253 111.89548874 -0.07808304 C114.83631717 -0.07987816 117.77714562 -0.08165779 120.71797407 -0.08343279 C121.449103 -0.08387489 122.18023193 -0.08431699 122.93351628 -0.08477248 C143.48846617 -0.09707466 164.04341396 -0.1049742 184.59836769 -0.10408592 C185.76004043 -0.10403919 185.76004043 -0.10403919 186.94518131 -0.10399151 C190.87023893 -0.1038253 194.79529654 -0.10362721 198.72035415 -0.10342209 C199.49986097 -0.1033822 200.27936778 -0.10334231 201.082496 -0.10330121 C202.65884525 -0.10322034 204.2351945 -0.10313674 205.81154375 -0.10305043 C230.35032815 -0.10182426 254.88905733 -0.11685287 279.42782593 -0.14419556 C307.00689263 -0.17491341 334.58592305 -0.19212837 362.16500795 -0.19026911 C365.10520768 -0.19011985 368.04540741 -0.19002244 370.98560715 -0.18996048 C372.07151068 -0.18992552 372.07151068 -0.18992552 373.17935167 -0.18988985 C384.82872938 -0.1898283 396.47805912 -0.20259892 408.12742257 -0.21982501 C419.83130971 -0.23677406 431.53511094 -0.23841754 443.23900534 -0.22560637 C449.57934448 -0.21906362 455.91950965 -0.21900702 462.25983238 -0.23631287 C468.0628975 -0.2519897 473.86564993 -0.24923497 479.66870718 -0.2317446 C481.76879517 -0.22866292 483.86890619 -0.23235079 485.96896704 -0.24346475 C488.82332635 -0.25757118 491.6765866 -0.24701083 494.53090858 -0.2303524 C495.3464025 -0.24028876 496.16189641 -0.25022512 497.00210226 -0.26046258 C505.82868728 -0.15153764 512.6953871 3.4726976 519.08407593 9.40414429 C524.57578764 15.344159 527.10114789 22.32562237 527.24423218 30.32992554 C527.28419312 31.5377771 527.32415405 32.74562866 527.36532593 33.99008179 C526.65839072 44.09495221 520.1824409 53.45417649 514.99423218 61.82992554 C513.65225953 64.03124462 512.3111427 66.23308561 510.97079468 68.43539429 C510.28275757 69.56122925 509.59472046 70.68706421 508.88583374 71.84701538 C505.4932949 77.41345062 502.18493234 83.03001639 498.86923218 88.64242554 C497.52686311 90.91070137 496.18441484 93.17893033 494.84188843 95.44711304 C493.84246216 97.13659058 493.84246216 97.13659058 492.82284546 98.86019897 C488.8220464 105.62153969 484.81502667 112.37919562 480.80917358 119.13754272 C477.46125176 124.78639396 474.11483881 130.43612798 470.77157593 136.08773804 C467.44909714 141.70402208 464.11821923 147.31527687 460.78573608 152.92562866 C458.78750751 156.29988881 456.80239027 159.6816231 454.81845093 163.06430054 C441.99571046 184.83102225 441.99571046 184.83102225 433.80673218 194.26742554 C433.1699353 195.00348022 432.53313843 195.73953491 431.87704468 196.49789429 C415.6596416 213.89290963 391.28322562 223.86128506 367.77753519 224.83542627 C363.00240516 224.93833568 358.23147534 224.92536246 353.45561218 224.89561462 C351.28321363 224.90067307 349.11081926 224.90791182 346.9384343 224.91711277 C341.03061867 224.93587554 335.12322237 224.92389236 329.21541798 224.90638983 C322.82083175 224.89293374 316.42630359 224.90848188 310.03172302 224.92021179 C298.25262025 224.93747242 286.47366683 224.93223552 274.69456743 224.91522504 C263.81647383 224.89961405 252.938428 224.89381539 242.06032372 224.89756584 C241.33677278 224.89780264 240.61322185 224.89803944 239.86774513 224.89828342 C236.93021476 224.89925843 233.99268441 224.90027926 231.05515408 224.90136852 C203.55113557 224.91143137 176.04720097 224.89324014 148.54320219 224.86164817 C124.1236103 224.83375883 99.704118 224.82884075 75.28451538 224.84384155 C69.02412325 224.84766421 62.76373111 224.85145905 56.50333881 224.85501194 C55.34712704 224.85566866 55.34712704 224.85566866 54.16755745 224.85633865 C33.73397127 224.86757966 13.30039239 224.86022941 -7.13319141 224.84713119 C-9.33172772 224.84574268 -11.53026404 224.84436197 -13.72880036 224.84299277 C-15.18711432 224.8420834 -16.64542827 224.84116073 -18.10374222 224.84022467 C-28.98089614 224.83343517 -39.85802129 224.83608321 -50.73517418 224.84317207 C-63.09716268 224.85114093 -75.45903305 224.84416732 -87.82100179 224.81899703 C-94.12709484 224.80649582 -100.4330211 224.8003635 -106.73912048 224.8115387 C-112.51163291 224.82157538 -118.28381261 224.81313321 -124.05628452 224.78995752 C-126.14397145 224.7847963 -128.23168817 224.78636349 -130.31936213 224.79535217 C-143.42668685 224.84709191 -154.34250948 224.79341463 -164.43545532 215.33383179 C-170.71378999 207.95330059 -172.55143297 199.87571788 -172.48233032 190.44320679 C-171.87448429 183.76511459 -168.88328278 177.80244797 -165.19326782 172.26742554 C-166.03760376 172.42598022 -166.8819397 172.58453491 -167.75186157 172.74789429 C-179.50707642 174.52251809 -191.96558185 174.2111232 -202.04873657 167.31430054 C-207.51634944 162.69469262 -211.26410103 157.78867581 -214.19326782 151.26742554 C-214.5103772 151.9080896 -214.82748657 152.54875366 -215.15420532 153.20883179 C-220.71860327 163.52295064 -228.22607771 168.07665437 -239.23623657 171.54086304 C-257.66239611 176.06829457 -279.59629578 173.29683521 -295.99795532 163.61117554 C-298.11029219 162.21611193 -300.17041671 160.78848413 -302.19326782 159.26742554 C-301.62097149 154.07513699 -299.09505172 149.95705523 -296.63076782 145.45492554 C-295.99364868 144.27253296 -295.99364868 144.27253296 -295.34365845 143.06625366 C-294.29930228 141.13008773 -293.24906012 139.19737186 -292.19326782 137.26742554 C-287.32312164 139.12981413 -282.65831467 141.40010588 -277.98428345 143.70101929 C-270.82075692 147.12481761 -264.37078615 148.54980656 -256.38076782 148.51742554 C-254.45297485 148.52515991 -254.45297485 148.52515991 -252.48623657 148.53305054 C-249.052424 148.52453317 -249.052424 148.52453317 -246.19326782 146.26742554 C-245.94305213 143.18376683 -245.94305213 143.18376683 -246.19326782 140.26742554 C-253.5169748 136.12793899 -260.82508082 133.3009929 -268.81826782 130.76742554 C-279.68459126 127.26690342 -289.44307543 123.83534669 -295.19326782 113.26742554 C-298.42681482 105.1947082 -298.56167065 95.93299584 -295.50576782 87.76742554 C-291.28648903 78.8324822 -284.76677578 74.06604774 -275.82608032 70.25961304 C-271.03567761 68.55230688 -266.27514738 67.56582772 -261.19326782 67.26742554 C-260.3450647 67.21457397 -259.49686157 67.16172241 -258.62295532 67.10726929 C-243.75484436 66.6413748 -224.97310366 69.49452469 -213.19326782 79.26742554 C-214.70358699 84.52864724 -217.09700973 88.9397514 -219.81826782 93.64242554 C-220.2385022 94.37848022 -220.65873657 95.11453491 -221.09170532 95.87289429 C-222.12079547 97.67380204 -223.15637538 99.47099872 -224.19326782 101.26742554 C-228.27306186 99.9580117 -232.1968222 98.46300262 -236.13076782 96.76742554 C-244.85348786 93.14364846 -252.64780467 91.06779301 -262.19326782 92.26742554 C-264.13508342 93.46290959 -264.13508342 93.46290959 -265.19326782 95.26742554 C-265.44375418 98.39291571 -265.44375418 98.39291571 -265.19326782 101.26742554 C-261.33753188 102.87020915 -257.44020577 104.18290708 -253.45889282 105.43930054 C-252.1487542 105.86042096 -250.8388661 106.28232139 -249.52920532 106.70492554 C-247.49322421 107.36112664 -245.45643378 108.01330523 -243.41494751 108.65219116 C-223.51268949 114.89641587 -223.51268949 114.89641587 -217.75576782 123.45492554 C-217.30330688 124.10848022 -216.85084595 124.76203491 -216.38467407 125.43539429 C-215.99151001 126.0399646 -215.59834595 126.64453491 -215.19326782 127.26742554 C-214.20326782 128.75242554 -214.20326782 128.75242554 -213.19326782 130.26742554 C-212.69826782 129.09180054 -212.20326782 127.91617554 -211.69326782 126.70492554 C-208.15545174 119.69136032 -202.11001049 114.92681121 -194.82803345 112.11361694 C-184.49284281 108.79432758 -173.60895829 109.00940551 -162.88076782 109.14242554 C-161.44652938 109.15249037 -160.01228399 109.16160994 -158.57803345 109.16976929 C-155.11629667 109.19147105 -151.6548293 109.22580099 -148.19326782 109.26742554 C-148.62088367 107.82655837 -149.06241483 106.38981671 -149.50967407 104.95492554 C-149.75403198 104.15441772 -149.99838989 103.35390991 -150.25015259 102.52914429 C-151.78733177 98.8427793 -153.8717274 97.43659479 -157.19326782 95.26742554 C-168.3872853 91.44627296 -181.8629538 94.74463402 -192.25576782 99.45492554 C-192.94799438 99.79910522 -193.64022095 100.14328491 -194.35342407 100.49789429 C-196.19326782 101.26742554 -196.19326782 101.26742554 -199.19326782 101.26742554 C-202.16326782 94.33742554 -205.13326782 87.40742554 -208.19326782 80.26742554 C-204.82513727 76.89929498 -201.70818009 75.75527848 -197.31826782 74.26742554 C-196.1813147 73.87551025 -196.1813147 73.87551025 -195.02139282 73.47567749 C-175.42184101 66.86619058 -153.90797721 63.79542441 -134.32998657 72.18148804 C-131.63554748 73.5508739 -129.40004435 75.20776745 -127.19326782 77.26742554 C-127.19326782 75.61742554 -127.19326782 73.96742554 -127.19326782 72.26742554 C-126.26429688 72.34766968 -126.26429688 72.34766968 -125.31655884 72.42953491 C-113.83531242 73.59457099 -113.83531242 73.59457099 -103.42910767 69.90756226 C-100.50679793 66.21104668 -98.85848537 61.87736851 -97.14736938 57.52230835 C-95.57753532 53.81222968 -93.47642291 50.47196254 -91.31826782 47.07992554 C-90.90206177 46.41775024 -90.48585571 45.75557495 -90.05703735 45.07333374 C-76.4501409 23.84165775 -56.74677219 8.56384427 -32.19326782 2.26742554 C-31.522846 2.09480772 -30.85242418 1.92218991 -30.16168654 1.74434125 C-20.2216879 -0.43074634 -10.11753585 -0.01653118 0 0 Z M-180.19326782 131.26742554 C-182.63098508 135.22871608 -183.32080596 137.32683175 -182.69326782 141.95492554 C-181.02329351 145.64278547 -179.58315904 147.11773842 -176.19326782 149.26742554 C-169.44500939 151.51684501 -163.51257942 150.58972515 -157.20498657 147.47445679 C-152.97426492 144.93602379 -150.05860121 141.81054864 -148.19326782 137.26742554 C-147.9534702 134.90520322 -147.9534702 134.90520322 -148.06826782 132.51742554 C-148.0863147 131.71820679 -148.10436157 130.91898804 -148.12295532 130.09555054 C-148.14615845 129.49226929 -148.16936157 128.88898804 -148.19326782 128.26742554 C-152.40146928 128.17999753 -156.60943558 128.12688913 -160.81826782 128.07992554 C-162.00807251 128.05478882 -163.1978772 128.0296521 -164.42373657 128.00375366 C-172.78185702 127.79024637 -172.78185702 127.79024637 -180.19326782 131.26742554 Z " fill="#FEFEFE" transform="translate(659.1932678222656,-0.267425537109375)"/>
<path d="M0 0 C38.61 0 77.22 0 117 0 C125.00511495 20.58458131 125.00511495 20.58458131 128.3671875 29.78515625 C129.11452774 31.81837981 129.86192502 33.8515824 130.609375 35.88476562 C131.75584603 39.00949527 132.90138821 42.13456137 134.04589844 45.26000977 C135.17147617 48.3317614 136.30037774 51.4022751 137.4296875 54.47265625 C137.77442108 55.41722183 138.11915466 56.36178741 138.47433472 57.3349762 C138.79201813 58.19775681 139.10970154 59.06053741 139.43701172 59.94946289 C139.71568085 60.71013565 139.99434998 61.47080841 140.28146362 62.25453186 C140.86727046 63.9955036 140.86727046 63.9955036 142 65 C142.26086899 64.20042374 142.52173798 63.40084747 142.79051208 62.57704163 C145.24477813 55.05641224 147.70193222 47.53673411 150.16236782 40.01812077 C151.42731723 36.1523332 152.69113114 32.28618199 153.95239258 28.41918945 C155.16872071 24.69010065 156.38797578 20.96198086 157.60930061 17.23452568 C158.07565617 15.80945673 158.54094068 14.38403683 159.00515556 12.95826912 C159.65355193 10.96742576 160.30568257 8.9778437 160.95874023 6.98852539 C161.32958237 5.85379288 161.7004245 4.71906036 162.08250427 3.54994202 C163 1 163 1 164 0 C166.3756852 -0.0883967 168.72208674 -0.11530305 171.09765625 -0.09765625 C172.16094398 -0.09553383 172.16094398 -0.09553383 173.24571228 -0.09336853 C175.51801712 -0.08775443 177.79022475 -0.07519963 180.0625 -0.0625 C181.59960796 -0.05748681 183.13671745 -0.05292359 184.67382812 -0.04882812 C188.44925642 -0.03778042 192.22461171 -0.02050641 196 0 C195.28407996 4.71531767 193.58653718 8.88140198 191.81640625 13.27734375 C191.32580971 14.51114273 191.32580971 14.51114273 190.82530212 15.76986694 C189.74141708 18.49390768 188.65186743 21.21564764 187.5625 23.9375 C186.00977302 27.83516416 184.46005099 31.7340214 182.91015625 35.6328125 C182.50878448 36.64130753 182.10741272 37.64980255 181.69387817 38.68885803 C178.83245037 45.88457739 175.99911884 53.09089163 173.18359375 60.3046875 C172.78991104 61.31320267 172.39622833 62.32171783 171.99061584 63.36079407 C170.45985455 67.28404038 168.92990059 71.20759653 167.40286255 75.1322937 C164.95271573 81.42849828 162.48366241 87.71694547 160 94 C159.43200684 95.44460602 159.43200684 95.44460602 158.85253906 96.918396 C157.69248236 99.85964926 156.51974911 102.79555817 155.34375 105.73046875 C154.99759644 106.61229324 154.65144287 107.49411774 154.2947998 108.40266418 C149.23695343 120.91765461 143.06150731 131.26885542 130.44921875 137 C120.48582585 141.06798817 108.32970129 141.88432918 98.0625 138.3125 C93.17864302 136.24796046 88.53917336 133.73471185 84 131 C84.56799795 127.32355553 85.53415632 124.72129048 87.50390625 121.57421875 C87.99697266 120.77822266 88.49003906 119.98222656 88.99804688 119.16210938 C89.77245117 117.93717773 89.77245117 117.93717773 90.5625 116.6875 C91.08263672 115.85154297 91.60277344 115.01558594 92.13867188 114.15429688 C93.41910355 112.09855795 94.7063358 110.04742777 96 108 C98.62527789 108.57655357 100.3169163 109.18425366 102.6875 110.5625 C107.82391281 112.79150933 112.56069515 112.92151516 117.8125 110.9375 C120.69040278 108.3885004 122.9336332 105.73920825 124 102 C123.53730853 96.41673996 121.97012976 91.95863702 119.74609375 86.90234375 C119.41315308 86.12649429 119.0802124 85.35064484 118.73718262 84.55128479 C117.64485778 82.01001892 116.54113046 79.47387371 115.4375 76.9375 C114.67620514 75.17098615 113.91588288 73.40405285 113.15649414 71.63671875 C111.97756571 68.89325492 110.79803962 66.15006626 109.61546326 63.40817261 C105.69134001 54.307243 101.84102664 45.17581103 98.00344849 36.03811646 C96.94579636 33.51975437 95.88702117 31.00186738 94.82788086 28.48413086 C93.21776728 24.65643143 91.60857383 20.82834675 90 17 C89.71261963 17.77327637 89.42523926 18.54655273 89.12915039 19.34326172 C87.74168508 22.6077801 85.88270443 24.56117063 83.4375 27.125 C79.97990957 30.82566351 76.67514014 34.54946914 73.5 38.5 C70.44651321 42.28460334 67.29331699 45.92207537 64 49.5 C59.98106679 53.86678524 56.18942845 58.35937066 52.49609375 63.00390625 C48.79404171 67.4475274 44.86907817 71.70102426 41 76 C65.75 76.495 65.75 76.495 91 77 C91 85.25 91 93.5 91 102 C60.31 102 29.62 102 -2 102 C-2 82 -2 82 2.9375 75.4375 C4.58764648 73.80053711 4.58764648 73.80053711 5.99609375 72.65234375 C8.86683814 70.18587849 11.16444315 67.48832592 13.5 64.5 C16.69931938 60.52370306 20.0258704 56.73333927 23.5 53 C27.71442837 48.4702559 31.69278551 43.81195624 35.5390625 38.9609375 C39.22533624 34.52570655 43.14198767 30.28668037 47 26 C31.49 25.67 15.98 25.34 0 25 C0 16.75 0 8.5 0 0 Z " fill="#034CAD" transform="translate(686,72)"/>
<path d="M0 0 C22.11 0 44.22 0 67 0 C75.04490389 20.68689572 75.04490389 20.68689572 78.40234375 29.8203125 C78.76977188 30.81586151 79.13720001 31.81141052 79.51576233 32.83712769 C80.6578158 35.93254394 81.79770906 39.02875003 82.9375 42.125 C83.72446433 44.25916807 84.51157288 46.39328297 85.29882812 48.52734375 C87.20087593 53.68428617 89.10116455 58.84187396 91 64 C91.31638428 63.05084717 91.63276855 62.10169434 91.95874023 61.1237793 C92.17024719 60.48926849 92.38175415 59.85475769 92.59967041 59.20101929 C93.08069244 57.7579325 93.56168932 56.31483733 94.04266357 54.87173462 C95.38699435 50.83836867 96.73178058 46.8051555 98.07739258 42.7722168 C100.64941701 35.06212395 103.21732976 27.35078383 105.765625 19.6328125 C106.17756104 18.38798096 106.58949707 17.14314941 107.01391602 15.8605957 C107.78505812 13.52920228 108.55384821 11.19702934 109.32006836 8.86401367 C109.66175049 7.83252197 110.00343262 6.80103027 110.35546875 5.73828125 C110.65090576 4.84149658 110.94634277 3.94471191 111.25073242 3.02075195 C112 1 112 1 113 0 C115.44830426 -0.08843793 117.86820599 -0.11528752 120.31640625 -0.09765625 C121.41298805 -0.09553383 121.41298805 -0.09553383 122.53172302 -0.09336853 C124.87535632 -0.08775408 127.21889539 -0.07519922 129.5625 -0.0625 C131.14778508 -0.05748686 132.73307166 -0.05292363 134.31835938 -0.04882812 C138.2122761 -0.03777997 142.10612205 -0.02050572 146 0 C145.2922612 4.52041391 143.71358406 8.60992714 142.03515625 12.83984375 C141.73042389 13.61766708 141.42569153 14.39549042 141.11172485 15.19688416 C140.09921841 17.77864079 139.08088449 20.35805694 138.0625 22.9375 C137.34636749 24.75977376 136.63063624 26.58220526 135.9152832 28.40478516 C134.39803857 32.26939503 132.87873357 36.13318703 131.35839844 39.99658203 C129.00090249 45.99196128 126.65903258 51.99336971 124.3203125 57.99609375 C120.91209144 66.74321942 117.49061068 75.48501514 114.05418396 84.22109985 C112.1790628 88.98949579 110.31465488 93.76169389 108.4669342 98.54077148 C107.28210519 101.59462687 106.07733079 104.64049434 104.875 107.6875 C104.48658936 108.70634277 104.09817871 109.72518555 103.69799805 110.77490234 C99.21232567 122.00297231 92.56242083 131.78004697 81.54296875 137.2109375 C69.60347113 142.14056902 57.19192611 141.96913347 45 138 C35.08895184 133.63342776 35.08895184 133.63342776 32 129 C34.0598286 125.48565112 36.15156011 121.99140856 38.25 118.5 C38.83652344 117.49839844 39.42304688 116.49679688 40.02734375 115.46484375 C40.88779297 114.04365234 40.88779297 114.04365234 41.765625 112.59375 C42.28930664 111.71396484 42.81298828 110.83417969 43.35253906 109.92773438 C44.16803223 108.97350586 44.16803223 108.97350586 45 108 C49 108 49 108 51.625 109.5 C56.16852824 111.51934588 60.09819403 111.729533 65 111 C69.33027461 108.60452894 71.3330234 105.63049057 73 101 C72.5729624 96.77203777 71.44946115 93.29966686 69.7265625 89.43359375 C69.2406665 88.33015625 68.75477051 87.22671875 68.25415039 86.08984375 C67.71653076 84.88457031 67.17891113 83.67929688 66.625 82.4375 C65.44481354 79.76104176 64.27090541 77.0818492 63.09765625 74.40234375 C62.77987717 73.67779999 62.46209808 72.95325623 62.13468933 72.20675659 C57.67626666 62.01434869 53.37845683 51.75330913 49.0625 41.5 C47.85255515 38.62650858 46.64251177 35.75305886 45.43214417 32.87974548 C44.70238561 31.14695118 43.97311365 29.41395181 43.24449158 27.68067932 C40.19653098 20.43885338 37.0953198 13.22241287 34 6 C33.67 37.68 33.34 69.36 33 102 C22.11 102 11.22 102 0 102 C0 68.34 0 34.68 0 0 Z " fill="#FFFFFF" transform="translate(118,69)"/>
<path d="M0 0 C12.0930789 7.91119084 19.06271944 18.80162986 22.171875 32.89453125 C24.99666791 49.42293262 23.42348949 66.05312267 14.296875 80.45703125 C7.712298 89.63295791 -1.55322948 96.1565257 -12.703125 98.45703125 C-25.57398611 100.36109213 -38.15004732 99.87458733 -48.93359375 91.95703125 C-50.60092564 90.54366382 -52.15755016 89.00260609 -53.703125 87.45703125 C-54.033125 102.96703125 -54.363125 118.47703125 -54.703125 134.45703125 C-65.923125 134.45703125 -77.143125 134.45703125 -88.703125 134.45703125 C-88.703125 88.58703125 -88.703125 42.71703125 -88.703125 -4.54296875 C-77.483125 -4.54296875 -66.263125 -4.54296875 -54.703125 -4.54296875 C-54.208125 0.40703125 -54.208125 0.40703125 -53.703125 5.45703125 C-52.73375 4.54953125 -51.764375 3.64203125 -50.765625 2.70703125 C-37.12080881 -9.02418267 -15.06559546 -8.59958123 0 0 Z M-51.390625 30.39453125 C-55.86638289 37.42786508 -55.70100578 46.41263987 -54.703125 54.45703125 C-52.71638853 61.39287017 -48.78141921 66.58533382 -42.703125 70.45703125 C-36.95538629 73.09141149 -31.53647371 73.25661361 -25.578125 71.20703125 C-17.82825982 67.93685692 -14.86315708 63.04110825 -11.703125 55.45703125 C-9.26347183 47.6958846 -9.97439055 38.66416108 -13.703125 31.45703125 C-17.40661912 25.99270272 -21.18183491 22.19604194 -27.703125 20.45703125 C-38.60535623 19.34293463 -44.23068342 22.17385759 -51.390625 30.39453125 Z " fill="#FFFFFF" transform="translate(88.703125,73.54296875)"/>
<path d="M0 0 C10.02965058 8.29276712 15.60076137 19.40916903 17.36328125 32.15234375 C18.12724388 48.14225935 16.26783905 62.27121425 5.6171875 74.765625 C-4.25379683 85.21826178 -17.58046865 91.93068773 -32.15234375 92.41796875 C-33.73045121 92.42705067 -35.30870066 92.42143721 -36.88671875 92.40234375 C-37.72227295 92.39340088 -38.55782715 92.38445801 -39.41870117 92.37524414 C-55.58601483 92.07373757 -68.70133452 87.91883897 -80.51953125 76.46875 C-92.61137593 63.23911182 -94.39753441 48.97898625 -93.81152344 31.76708984 C-93.02535389 20.00748672 -86.09723846 8.63122651 -77.56640625 0.70703125 C-55.36903994 -17.17667683 -22.79431968 -15.97290846 0 0 Z " fill="#024BAD" transform="translate(968.63671875,82.84765625)"/>
<path d="M0 0 C7.46274051 6.46686805 11.45630722 13.97916373 12.35069275 23.88356018 C12.51099108 28.41640161 12.45094239 32.94620168 12.390625 37.48046875 C12.38314893 39.1462587 12.37746247 40.81205755 12.37347412 42.4778595 C12.35832506 46.82631438 12.31913841 51.17422039 12.2746582 55.52246094 C12.22620866 60.75884919 12.20812026 65.9954227 12.18484497 71.23197174 C12.14627863 79.15502758 12.06955187 87.07688316 12 95 C1.11 95 -9.78 95 -21 95 C-21.495 91.04 -21.495 91.04 -22 87 C-22.42667969 87.38671875 -22.85335937 87.7734375 -23.29296875 88.171875 C-33.69530646 96.83691508 -45.99055025 98.10226509 -59 97 C-67.85920904 95.56689265 -75.56973548 91.2526656 -81.375 84.375 C-86.79306705 76.42145868 -87.60815607 67.34422257 -86.578125 57.984375 C-85.76730823 53.79880736 -84.35238925 50.53279962 -82 47 C-81.4225 46.113125 -80.845 45.22625 -80.25 44.3125 C-71.52070562 35.34072522 -59.55083214 33.18777464 -47.46459961 32.92236328 C-43.45502236 32.90181291 -39.44697617 32.91239044 -35.4375 32.9375 C-34.03320473 32.94252634 -32.6289077 32.94708724 -31.22460938 32.95117188 C-27.81636097 32.96288407 -24.4082036 32.97928628 -21 33 C-21.28230469 31.73929688 -21.56460938 30.47859375 -21.85546875 29.1796875 C-22.09366333 28.11596924 -22.09366333 28.11596924 -22.33666992 27.03076172 C-23.40512159 23.75973449 -25.34858419 22.09646832 -28 20 C-37.5581024 15.25436874 -49.17442451 17.84867467 -58.87890625 20.83203125 C-62.07009145 21.94564982 -62.07009145 21.94564982 -65.15234375 23.69921875 C-68 25 -68 25 -70.04199219 24.84057617 C-72.71080832 23.69484875 -73.07365227 22.50453846 -74.17578125 19.8515625 C-74.52833984 19.01109375 -74.88089844 18.170625 -75.24414062 17.3046875 C-75.59669922 16.42039062 -75.94925781 15.53609375 -76.3125 14.625 C-76.68439453 13.7484375 -77.05628906 12.871875 -77.43945312 11.96875 C-80.13464318 5.40392953 -80.13464318 5.40392953 -79 2 C-56.57482011 -9.81101469 -21.55158142 -15.78377036 0 0 Z M-53.3125 56.1875 C-55.46888301 59.78147168 -55.5166595 61.86672399 -55 66 C-53.54852612 69.75675593 -52.33735063 70.80817317 -48.8125 72.8125 C-41.45042942 75.10560395 -36.22958193 74.27774299 -29.2734375 71.28125 C-25.31363209 69.04960709 -23.03349482 66.06698964 -21 62 C-20.93003986 60.29297265 -20.91559846 58.58331997 -20.9375 56.875 C-20.94652344 55.96492188 -20.95554687 55.05484375 -20.96484375 54.1171875 C-20.97644531 53.41851562 -20.98804688 52.71984375 -21 52 C-25.06243957 51.94180527 -29.12477146 51.90633785 -33.1875 51.875 C-34.91323242 51.84986328 -34.91323242 51.84986328 -36.67382812 51.82421875 C-37.78564453 51.81777344 -38.89746094 51.81132813 -40.04296875 51.8046875 C-41.06414795 51.79421387 -42.08532715 51.78374023 -43.13745117 51.77294922 C-47.47537375 52.11702325 -50.15505534 53.20072803 -53.3125 56.1875 Z " fill="#FFFFFF" transform="translate(343,76)"/>
<path d="M0 0 C10.16443048 7.45489209 15.71652847 15.64085051 18 28 C18.3870816 33.54090297 18.35159519 39.05412801 18.29296875 44.60546875 C18.28736077 46.18158053 18.28309637 47.75769761 18.28010559 49.33381653 C18.26875125 53.44543361 18.23936743 57.55672347 18.20599365 61.66821289 C18.16963627 66.62097667 18.15608669 71.57385097 18.13863373 76.52671051 C18.10972253 84.0180333 18.05217093 91.50864074 18 99 C7.11 99 -3.78 99 -15 99 C-15.01417969 94.6171875 -15.02835938 90.234375 -15.04296875 85.71875 C-15.06824213 82.20738392 -15.09847399 78.69613779 -15.13204193 75.18484497 C-15.16603717 71.48740516 -15.19144842 67.79037751 -15.19555664 64.09277344 C-15.19985905 60.52621225 -15.22847923 56.96057461 -15.27343178 53.39430237 C-15.29259756 51.38270892 -15.2870683 49.37092868 -15.28105164 47.35925293 C-15.39716519 40.02537673 -15.92475537 34.57002363 -21 29 C-25.72242398 25.22206082 -31.11092028 25.50270506 -36.93359375 25.6484375 C-42.17003665 26.24879401 -44.64470293 28.60598016 -48.1875 32.25 C-53.25298392 39.93556181 -53.46329303 47.06108249 -53.51171875 56.03125 C-53.52966995 57.26290894 -53.54762115 58.49456787 -53.56611633 59.7635498 C-53.62005461 63.67566564 -53.65406326 67.58766058 -53.6875 71.5 C-53.71906893 74.16150393 -53.75517831 76.8229223 -53.79101562 79.484375 C-53.87821158 85.98959918 -53.93842499 92.49428158 -54 99 C-64.56 99 -75.12 99 -86 99 C-86 65.34 -86 31.68 -86 -3 C-75.11 -3 -64.22 -3 -53 -3 C-52.505 3.93 -52.505 3.93 -52 11 C-51.21625 9.96875 -50.4325 8.9375 -49.625 7.875 C-38.26950725 -5.35965231 -15.09160682 -8.93518943 0 0 Z " fill="#024BAD" transform="translate(1079,75)"/>
<path d="M0 0 C11.22 0 22.44 0 34 0 C40.95220316 21.67451575 40.95220316 21.67451575 43.625 30.875 C47.44506237 44.01918369 51.6307192 57.02879693 56 70 C56.34901367 68.7639502 56.69802734 67.52790039 57.05761719 66.25439453 C60.6893882 53.44064965 64.4532045 40.67070738 68.32421875 27.92724609 C69.26783108 24.81621199 70.20419252 21.70304552 71.140625 18.58984375 C71.7443514 16.59882478 72.3485013 14.60793416 72.953125 12.6171875 C73.36875702 11.22993973 73.36875702 11.22993973 73.79278564 9.81466675 C74.05355896 8.96172028 74.31433228 8.1087738 74.58300781 7.22998047 C74.80917786 6.48279755 75.0353479 5.73561462 75.26837158 4.96578979 C76 3 76 3 78 0 C80.48340903 -0.26727014 82.71472068 -0.34866334 85.1953125 -0.29296875 C86.25647781 -0.28660149 86.25647781 -0.28660149 87.33908081 -0.28010559 C89.60143905 -0.26329547 91.86291048 -0.22564128 94.125 -0.1875 C95.65753923 -0.17245607 97.1900924 -0.15876716 98.72265625 -0.14648438 C102.48211318 -0.11338462 106.24090618 -0.06158825 110 0 C107.34042897 8.21214795 104.34308752 16.29335646 101.3359375 24.3828125 C100.77878732 25.88424041 100.22171079 27.38569564 99.66470337 28.88717651 C98.49736727 32.03274476 97.32890059 35.17789015 96.15966797 38.32275391 C94.97902888 41.49859404 93.79997622 44.67501492 92.62255859 47.85205078 C85.90878195 65.96780804 79.11018484 84.03503403 72 102 C60.78 102 49.56 102 38 102 C35.32390625 94.89404297 35.32390625 94.89404297 32.59375 87.64453125 C31.44535576 84.59568682 30.29693789 81.54685132 29.1484375 78.49804688 C27.3360381 73.68685225 25.52371381 68.87562946 23.71191406 64.06420898 C20.30610076 55.01996876 16.89772568 45.9767024 13.48486328 36.93511963 C12.55380605 34.4683465 11.62390728 32.0011488 10.69482422 29.53363037 C9.60114167 26.62953759 8.50429209 23.72666536 7.40625 20.82421875 C7.11004761 20.03553909 6.81384521 19.24685944 6.50866699 18.4342804 C4.76812468 13.84739164 2.85102123 9.38833481 0.75524902 4.95149231 C0 3 0 3 0 0 Z " fill="#024BAD" transform="translate(532,72)"/>
<path d="M0 0 C10.89 0 21.78 0 33 0 C33 33.66 33 67.32 33 102 C22.11 102 11.22 102 0 102 C0 68.34 0 34.68 0 0 Z " fill="#044DAE" transform="translate(643,72)"/>
<path d="M0 0 C6.48952112 2.9190317 10.92449807 7.884647 13.5234375 14.47265625 C16.01612993 23.16740484 15.85826977 33.22982874 11.6484375 41.34765625 C8.20465341 46.74399082 3.8495129 50.5439011 -2.3515625 52.34765625 C-9.43476734 53.35067942 -15.53583462 52.68394458 -21.3515625 48.34765625 C-26.7193907 43.419014 -29.9530923 37.86927126 -30.78515625 30.515625 C-30.80212266 13.22685642 -30.80212266 13.22685642 -24.4453125 6.2578125 C-17.11335635 -0.43122958 -9.91400291 -2.75023004 0 0 Z " fill="#FCFCFE" transform="translate(938.3515625,97.65234375)"/>
<path d="M0 0 C4.7487883 4.40958914 6.82540361 8.94624495 7.125 15.4375 C6.89434647 20.43499321 5.65360437 24.4271462 2.625 28.4375 C-3.15290454 33.03624035 -8.1616065 34.2441842 -15.375 33.4375 C-20.09365877 32.11694844 -23.45175795 29.87894996 -26.375 25.9375 C-29.26374303 20.67094808 -29.3542203 15.27365296 -28.375 9.4375 C-26.69589503 5.15406896 -24.49864708 2.30832648 -20.875 -0.5 C-13.98367323 -3.42881388 -6.79457152 -3.14563496 0 0 Z " fill="#FFFFFF" transform="translate(145.375,24.5625)"/>
<path d="M0 0 C4.66743313 2.64959335 6.94520519 6.33561558 8.625 11.375 C9.24095985 17.53459847 7.75969594 22.14713613 4.625 27.375 C-0.53619112 32.41030841 -5.31659415 32.84424496 -12.2890625 32.78515625 C-17.1835478 32.13462339 -20.08690359 29.95152592 -23.375 26.375 C-26.48185406 22.10307567 -26.96410758 18.07249706 -26.78515625 12.90625 C-25.9763622 7.91483527 -23.56018848 4.33834194 -19.8359375 0.9921875 C-13.82644812 -3.0805944 -6.49288487 -2.87766592 0 0 Z " fill="#054DAE" transform="translate(668.375,27.625)"/>
</svg>
